HIERARCHY
ROOT hip
{
	OFFSET 0.000000 0.000000 0.000000
	CHANNELS 6 Xposition Yposition Zposition Zrotation Yrotation Xrotation 
	JOINT lhipjoint
	{
		OFFSET 0.000000 0.000000 0.000000
		CHANNELS 3 Zrotation Yrotation Xrotation
		JOINT lfemur
		{
			OFFSET 1.363060 -1.794630 0.839290
			CHANNELS 3 Zrotation Yrotation Xrotation
			JOINT ltibia
			{
				OFFSET 2.448110 -6.726130 0.000000
				CHANNELS 3 Zrotation Yrotation Xrotation
				JOINT lfoot
				{
					OFFSET 2.562200 -7.039590 0.000000
					CHANNELS 3 Zrotation Yrotation Xrotation
					JOINT ltoes
					{
						OFFSET 0.157640 -0.433110 2.322550
						CHANNELS 3 Zrotation Yrotation Xrotation
						End Site
						{
							OFFSET 0.000000 0.000000 0.000000
						}
					}
				}
			}
		}
	}
	JOINT rhipjoint
	{
		OFFSET 0.000000 0.000000 0.000000
		CHANNELS 3 Zrotation Yrotation Xrotation
		JOINT rfemur
		{
			OFFSET -1.305520 -1.794630 0.839290
			CHANNELS 3 Zrotation Yrotation Xrotation
			JOINT rtibia
			{
				OFFSET -2.542530 -6.985550 0.000000
				CHANNELS 3 Zrotation Yrotation Xrotation
				JOINT rfoot
				{
					OFFSET -2.568260 -7.056230 0.000000
					CHANNELS 3 Zrotation Yrotation Xrotation
					JOINT rtoes
					{
						OFFSET -0.164730 -0.452590 2.363150
						CHANNELS 3 Zrotation Yrotation Xrotation
						End Site
						{
							OFFSET 0.000000 0.000000 0.000000
						}
					}
				}
			}
		}
	}
	JOINT lowerback
	{
		OFFSET 0.000000 0.000000 0.000000
		CHANNELS 3 Zrotation Yrotation Xrotation
		JOINT upperback
		{
			OFFSET 0.028270 2.035590 -0.193380
			CHANNELS 3 Zrotation Yrotation Xrotation
			JOINT thorax
			{
				OFFSET 0.056720 2.048850 -0.042750
				CHANNELS 3 Zrotation Yrotation Xrotation
				JOINT lowerneck
				{
					OFFSET 0.000000 0.000000 0.000000
					CHANNELS 3 Zrotation Yrotation Xrotation
					JOINT upperneck
					{
						OFFSET -0.054170 1.746240 0.172020
						CHANNELS 3 Zrotation Yrotation Xrotation
						JOINT head
						{
							OFFSET 0.104070 1.761360 -0.123970
							CHANNELS 3 Zrotation Yrotation Xrotation
							End Site
							{
								OFFSET 0.000000 0.000000 0.000000
							}
						}
					}
				}
				JOINT lclavicle
				{
					OFFSET 0.000000 0.000000 0.000000
					CHANNELS 3 Zrotation Yrotation Xrotation
					JOINT lhumerus
					{
						OFFSET 3.362410 1.200890 -0.311210
						CHANNELS 3 Zrotation Yrotation Xrotation
						JOINT lradius
						{
							OFFSET 4.983000 -0.000000 -0.000000
							CHANNELS 3 Zrotation Yrotation Xrotation
							JOINT lwrist
							{
								OFFSET 3.483560 -0.000000 -0.000000
								CHANNELS 3 Zrotation Yrotation Xrotation
								JOINT lhand
								{
									OFFSET 0.000000 0.000000 0.000000
									CHANNELS 3 Zrotation Yrotation Xrotation
									JOINT lfingers
									{
										OFFSET 0.715260 -0.000000 -0.000000
										CHANNELS 3 Zrotation Yrotation Xrotation
										End Site
										{
											OFFSET 0.000000 0.000000 0.000000
										}
									}
								}
								JOINT lthumb
								{
									OFFSET 0.000000 0.000000 0.000000
									CHANNELS 3 Zrotation Yrotation Xrotation
									End Site
									{
										OFFSET 0.000000 0.000000 0.000000
									}
								}
							}
						}
					}
				}
				JOINT rclavicle
				{
					OFFSET 0.000000 0.000000 0.000000
					CHANNELS 3 Zrotation Yrotation Xrotation
					JOINT rhumerus
					{
						OFFSET -3.136600 1.374050 -0.404650
						CHANNELS 3 Zrotation Yrotation Xrotation
						JOINT rradius
						{
							OFFSET -5.241900 -0.000000 -0.000000
							CHANNELS 3 Zrotation Yrotation Xrotation
							JOINT rwrist
							{
								OFFSET -3.444170 -0.000000 -0.000000
								CHANNELS 3 Zrotation Yrotation Xrotation
								JOINT rhand
								{
									OFFSET 0.000000 0.000000 0.000000
									CHANNELS 3 Zrotation Yrotation Xrotation
									JOINT rfingers
									{
										OFFSET -0.622530 -0.000000 -0.000000
										CHANNELS 3 Zrotation Yrotation Xrotation
										End Site
										{
											OFFSET 0.000000 0.000000 0.000000
										}
									}
								}
								JOINT rthumb
								{
									OFFSET 0.000000 0.000000 0.000000
									CHANNELS 3 Zrotation Yrotation Xrotation
									End Site
									{
										OFFSET 0.000000 0.000000 0.000000
									}
								}
							}
						}
					}
				}
			}
		}
	}
}
MOTION
Frames: 8
Frame Time: 0.008333
-32.818014 28.791646 -7.554001 -164.547275 70.256197 -158.830644 -3.309798 1.828834 1.818565 -11.964089 3.419707 -13.424742 2.639373 9.143319 28.950934 1.333716 -3.684676 -10.082847 0.743800 -5.509100 -15.366400 -0.581940 -4.089359 1.264577 28.498583 0.028836 -23.941100 -4.180041 -10.997370 36.755620 0.531264 -5.017932 -9.924179 -0.026000 -1.040000 2.858900 1.419193 -0.271265 0.685236 1.096452 -0.604221 -4.156148 2.259623 0.480500 3.898827 -6.131252 -6.358932 -3.842842 0.752203 -7.269694 5.615930 4.953000 -3.301500 1.887500 1.583987 2.456717 0.284991 -77.788263 -4.536349 11.568656 12.077139 -33.831547 -3.856666 -1.086616 0.873309 -171.313578 21.210668 5.042982 2.125800 -7.125000 0.000000 0.000000 -5.634000 36.154700 1.230000 -1.069253 0.375110 3.609448 77.562064 -15.708411 28.323263 -36.530615 49.166070 -11.013813 0.983229 -3.843953 -5.311470 -16.730833 -0.163864 -1.238700 7.125000 0.000000 0.000000 6.946300 -25.834900 3.247500 
-32.797720 28.789084 -7.540062 -164.669049 70.349609 -158.933314 -3.311441 1.828313 1.816778 -11.945838 3.228798 -13.381736 2.676484 9.203670 29.147251 1.356259 -3.712936 -10.311321 0.711700 -5.391500 -15.028600 -0.583266 -4.090094 1.265594 28.503255 0.092669 -23.847120 -4.177464 -10.987572 36.738170 0.515817 -4.985739 -10.058547 -0.028300 -1.086600 2.987200 1.400883 -0.314088 0.787473 1.093731 -0.660092 -4.159479 2.205892 0.452998 3.820524 -6.091250 -6.350492 -3.755551 0.745435 -7.255433 5.602165 4.947500 -3.295500 1.860100 1.516064 2.439446 0.274723 -77.207689 -4.516572 12.756266 12.597250 -34.426562 -4.037939 -1.068708 0.811532 -172.378112 21.021615 5.677271 2.322300 -7.125000 0.000000 0.000000 -5.826500 36.776300 1.183500 -1.041297 0.398555 3.620671 77.414725 -15.964661 28.329680 -36.532814 49.142008 -11.013560 0.976926 -3.834701 -5.195880 -16.719128 -0.140249 -1.241500 7.125000 0.000000 0.000000 6.953100 -25.823000 3.252700 
-32.775479 28.784472 -7.526737 -164.715318 70.419298 -158.957537 -3.311650 1.826505 1.814541 -11.891174 2.936855 -13.344942 2.722795 9.279619 29.394048 1.376232 -3.714735 -10.566420 0.666700 -5.221800 -14.542300 -0.583563 -4.092261 1.267707 28.551107 0.085427 -23.780049 -4.177193 -10.980331 36.730745 0.495916 -4.943941 -10.224230 -0.025600 -1.032300 2.837600 1.413662 -0.355944 0.872395 1.096408 -0.715129 -4.165236 2.172074 0.426189 3.734237 -6.059619 -6.343327 -3.634938 0.719102 -7.238734 5.579315 4.935200 -3.289000 1.817200 1.450929 2.421934 0.266089 -76.660574 -4.434556 13.919139 13.126467 -35.019648 -4.226135 -1.046772 0.753395 -173.319374 20.730584 6.320447 2.504000 -7.125000 0.000000 0.000000 -6.111200 37.398500 1.148400 -1.005252 0.426354 3.633955 77.221365 -16.282276 28.364583 -36.568256 49.134678 -11.036096 0.975452 -3.825592 -5.171741 -16.747907 -0.177227 -1.229300 7.125000 0.000000 0.000000 6.932900 -25.870300 3.235400 
-32.753238 28.781602 -7.513003 -164.948059 70.498856 -159.178755 -3.318042 1.825601 1.811130 -11.901858 2.579826 -13.298283 2.779881 9.368930 29.693971 1.380578 -3.624947 -10.848820 0.641600 -5.124200 -14.263200 -0.587039 -4.091299 1.268026 28.530929 0.072046 -23.718973 -4.179412 -10.978672 36.737886 0.469066 -4.877678 -10.404163 -0.020900 -0.933100 2.564800 1.364381 -0.400664 0.992641 1.093840 -0.773228 -4.167963 2.141954 0.396451 3.655709 -6.053914 -6.336134 -3.559453 0.717242 -7.224188 5.558171 4.939700 -3.282000 1.792300 1.382274 2.402982 0.255777 -76.090895 -4.340148 15.064442 13.679991 -35.620989 -4.429231 -1.021906 0.700358 -174.216296 20.463319 6.835844 2.639600 -7.125000 0.000000 0.000000 -6.365300 37.888200 1.119900 -0.977021 0.451680 3.645189 77.046718 -16.547165 28.410037 -36.564618 49.102969 -11.037287 0.974704 -3.817270 -5.156914 -16.762300 -0.220071 -1.214400 7.125000 0.000000 0.000000 6.923700 -25.923300 3.222400 
-32.730177 28.777297 -7.499064 -165.021963 70.535230 -159.221814 -3.319195 1.820804 1.804811 -11.846897 2.216639 -13.337642 2.849783 9.480644 30.065799 1.370207 -3.467518 -11.103493 0.654100 -5.173000 -14.402700 -0.587882 -4.092543 1.270534 28.584636 0.048439 -23.686107 -4.182455 -10.976381 36.746544 0.444243 -4.829226 -10.612066 -0.014900 -0.789000 2.168500 1.377926 -0.438981 1.078709 1.094325 -0.823608 -4.171458 2.099662 0.372624 3.591922 -6.033482 -6.331080 -3.501838 0.704601 -7.214730 5.555233 4.934900 -3.279300 1.778700 1.313884 2.382819 0.243598 -75.489701 -4.222440 16.248443 14.242667 -36.214816 -4.639955 -0.992586 0.651596 -175.019827 20.081953 7.291737 2.733300 -7.125000 0.000000 0.000000 -6.711300 38.306300 1.112300 -0.943428 0.476047 3.656200 76.856154 -16.848792 28.480750 -36.561361 49.074149 -11.042913 0.971057 -3.810117 -5.165075 -16.837224 -0.244154 -1.210300 7.125000 0.000000 0.000000 6.871200 -25.953000 3.192800 
-32.706193 28.773710 -7.485432 -165.178716 70.592135 -159.335578 -3.324190 1.815804 1.797091 -11.836658 1.778470 -13.392842 2.934685 9.611347 30.512961 1.319850 -3.097379 -11.383858 0.675200 -5.254300 -14.635200 -0.589502 -4.092121 1.273300 28.600848 -0.000412 -23.670614 -4.185682 -10.977053 36.759917 0.410157 -4.731116 -10.779127 -0.011200 -0.683200 1.877500 1.362826 -0.471233 1.180599 1.093629 -0.865499 -4.176603 2.071550 0.351341 3.501509 -6.028166 -6.342209 -3.380615 0.691215 -7.219711 5.512075 4.936400 -3.280700 1.731200 1.245201 2.363437 0.233449 -74.886895 -4.035288 17.418673 14.805269 -36.796838 -4.855298 -0.962927 0.607052 -175.813678 19.743245 7.649432 2.796400 -7.125000 0.000000 0.000000 -7.012300 38.625400 1.107500 -0.911008 0.509471 3.671548 76.668250 -17.171204 28.536252 -36.553349 49.037711 -11.042326 0.968940 -3.801195 -5.155839 -16.863795 -0.276580 -1.199100 7.125000 0.000000 0.000000 6.853600 -25.995600 3.177700 
-32.681082 28.770020 -7.471391 -165.242835 70.642417 -159.389934 -3.327455 1.809862 1.787085 -11.792717 1.374305 -13.486039 3.036712 9.768568 31.047816 1.251496 -2.637564 -11.670808 0.741200 -5.499700 -15.339500 -0.591038 -4.092330 1.275142 28.651143 -0.044349 -23.631986 -4.189776 -10.975953 36.774459 0.375086 -4.636157 -10.970305 -0.008400 -0.591900 1.626600 1.362189 -0.500768 1.294632 1.099405 -0.903214 -4.177976 2.087916 0.332294 3.429415 -6.080567 -6.343566 -3.289687 0.685511 -7.212920 5.484054 4.953400 -3.277800 1.701700 1.177468 2.343776 0.222139 -74.306151 -3.828725 18.568746 15.365302 -37.363336 -5.075586 -0.932355 0.569903 -176.497207 19.341032 7.860086 2.798000 -7.125000 0.000000 0.000000 -7.350000 38.788900 1.131800 -0.871268 0.537924 3.685086 76.411435 -17.522015 28.659369 -36.584857 49.024244 -11.066385 0.966686 -3.791264 -5.301239 -16.948954 -0.289808 -1.198200 7.125000 0.000000 0.000000 6.798500 -26.014800 3.148700 
-32.656074 28.767253 -7.458169 -165.422217 70.678271 -159.495399 -3.332400 1.800982 1.772938 -11.782521 0.992832 -13.728301 3.156809 9.947617 31.668892 1.172436 -2.155685 -11.896313 0.809800 -5.742600 -16.039400 -0.593281 -4.090089 1.279332 28.661068 -0.074899 -23.657809 -4.192614 -10.977352 36.787430 0.335854 -4.529371 -11.174545 -0.007100 -0.545400 1.498800 1.341501 -0.535369 1.362572 1.103384 -0.949356 -4.184041 2.103472 0.308863 3.366696 -6.143993 -6.344058 -3.226993 0.678398 -7.205839 5.463099 4.971200 -3.275100 1.683000 1.110379 2.321541 0.207810 -73.724876 -3.599106 19.664870 15.898168 -37.891636 -5.288685 -0.903241 0.535743 -177.184768 18.999332 8.019244 2.791300 -7.125000 0.000000 0.000000 -7.631500 38.904800 1.153800 -0.833436 0.567120 3.697224 76.173710 -17.905717 28.761931 -36.597244 49.001202 -11.080073 0.956211 -3.781803 -5.367720 -17.065013 -0.223487 -1.224400 7.125000 0.000000 0.000000 6.718800 -25.951300 3.121300 
